<svg xmlns="http://www.w3.org/2000/svg" width="920" height="480" viewBox="0 0 920 480" font-family="DejaVu Sans, sans-serif">
<rect x="0" y="0" width="920" height="480" fill="#FFFFFF"/>
<text x="20" y="30" font-size="18" font-weight="bold" fill="#222222">Historical grid hypothesis: single read (blue), candidates (orange)</text>
<rect x="20" y="60" width="188" height="118" rx="8" fill="none" stroke="#E07A1F" stroke-width="3"/>
<text x="30" y="82" font-size="14" font-weight="bold" fill="#222222">hour 1</text>
<text x="30" y="106" font-size="11" fill="#9A9A9A">3 historical candidates:</text>
<text x="30" y="124" font-size="13" fill="#E07A1F">logic</text>
<text x="30" y="142" font-size="13" fill="#E07A1F">mandate</text>
<text x="30" y="160" font-size="13" fill="#E07A1F">mechanic</text>
<rect x="220" y="60" width="188" height="118" rx="8" fill="none" stroke="#E07A1F" stroke-width="3"/>
<text x="230" y="82" font-size="14" font-weight="bold" fill="#222222">hour 2</text>
<text x="230" y="106" font-size="11" fill="#9A9A9A">3 historical candidates:</text>
<text x="230" y="124" font-size="13" fill="#E07A1F">open</text>
<text x="230" y="142" font-size="13" fill="#E07A1F">oyster</text>
<text x="230" y="160" font-size="13" fill="#E07A1F">peace</text>
<rect x="420" y="60" width="188" height="118" rx="8" fill="none" stroke="#E07A1F" stroke-width="3"/>
<text x="430" y="82" font-size="14" font-weight="bold" fill="#222222">hour 3</text>
<text x="430" y="106" font-size="11" fill="#9A9A9A">3 historical candidates:</text>
<text x="430" y="124" font-size="13" fill="#E07A1F">retreat</text>
<text x="430" y="142" font-size="13" fill="#E07A1F">romance</text>
<text x="430" y="160" font-size="13" fill="#E07A1F">sand</text>
<rect x="620" y="60" width="188" height="118" rx="8" fill="none" stroke="#1F5FBF" stroke-width="3"/>
<text x="630" y="82" font-size="14" font-weight="bold" fill="#222222">hour 4</text>
<text x="630" y="108" font-size="15" fill="#1F5FBF">strategy</text>
<text x="630" y="128" font-size="11" fill="#9A9A9A">one word in historical read</text>
<rect x="20" y="190" width="188" height="118" rx="8" fill="none" stroke="#E07A1F" stroke-width="3"/>
<text x="30" y="212" font-size="14" font-weight="bold" fill="#222222">hour 5</text>
<text x="30" y="236" font-size="11" fill="#9A9A9A">3 historical candidates:</text>
<text x="30" y="254" font-size="13" fill="#E07A1F">trash</text>
<text x="30" y="272" font-size="13" fill="#E07A1F">turtle</text>
<text x="30" y="290" font-size="13" fill="#E07A1F">unlock</text>
<rect x="220" y="190" width="188" height="118" rx="8" fill="none" stroke="#E07A1F" stroke-width="3"/>
<text x="230" y="212" font-size="14" font-weight="bold" fill="#222222">hour 6</text>
<text x="230" y="236" font-size="11" fill="#9A9A9A">3 historical candidates:</text>
<text x="230" y="254" font-size="13" fill="#E07A1F">valve</text>
<text x="230" y="272" font-size="13" fill="#E07A1F">vintage</text>
<text x="230" y="290" font-size="13" fill="#E07A1F">waste</text>
<rect x="420" y="190" width="188" height="118" rx="8" fill="none" stroke="#E07A1F" stroke-width="3"/>
<text x="430" y="212" font-size="14" font-weight="bold" fill="#222222">hour 7</text>
<text x="430" y="236" font-size="11" fill="#9A9A9A">3 historical candidates:</text>
<text x="430" y="254" font-size="13" fill="#E07A1F">traffic</text>
<text x="430" y="272" font-size="13" fill="#E07A1F">tuition</text>
<text x="430" y="290" font-size="13" fill="#E07A1F">uniform</text>
<rect x="620" y="190" width="188" height="118" rx="8" fill="none" stroke="#1F5FBF" stroke-width="3"/>
<text x="630" y="212" font-size="14" font-weight="bold" fill="#222222">hour 8</text>
<text x="630" y="238" font-size="15" fill="#1F5FBF">stick</text>
<text x="630" y="258" font-size="11" fill="#9A9A9A">one word in historical read</text>
<rect x="20" y="320" width="188" height="118" rx="8" fill="none" stroke="#E07A1F" stroke-width="3"/>
<text x="30" y="342" font-size="14" font-weight="bold" fill="#222222">hour 9</text>
<text x="30" y="366" font-size="11" fill="#9A9A9A">3 historical candidates:</text>
<text x="30" y="384" font-size="13" fill="#E07A1F">recycle</text>
<text x="30" y="402" font-size="13" fill="#E07A1F">require</text>
<text x="30" y="420" font-size="13" fill="#E07A1F">riot</text>
<rect x="220" y="320" width="188" height="118" rx="8" fill="none" stroke="#E07A1F" stroke-width="3"/>
<text x="230" y="342" font-size="14" font-weight="bold" fill="#222222">hour 10</text>
<text x="230" y="366" font-size="11" fill="#9A9A9A">3 historical candidates:</text>
<text x="230" y="384" font-size="13" fill="#E07A1F">notable</text>
<text x="230" y="402" font-size="13" fill="#E07A1F">okay</text>
<text x="230" y="420" font-size="13" fill="#E07A1F">outdoor</text>
<rect x="420" y="320" width="188" height="118" rx="8" fill="none" stroke="#E07A1F" stroke-width="3"/>
<text x="430" y="342" font-size="14" font-weight="bold" fill="#222222">hour 11</text>
<text x="430" y="366" font-size="11" fill="#9A9A9A">3 historical candidates:</text>
<text x="430" y="384" font-size="13" fill="#E07A1F">lizard</text>
<text x="430" y="402" font-size="13" fill="#E07A1F">main</text>
<text x="430" y="420" font-size="13" fill="#E07A1F">maze</text>
<rect x="620" y="320" width="188" height="118" rx="8" fill="none" stroke="#1F5FBF" stroke-width="3"/>
<text x="630" y="342" font-size="14" font-weight="bold" fill="#222222">hour 12</text>
<text x="630" y="368" font-size="15" fill="#1F5FBF">leisure</text>
<text x="630" y="388" font-size="11" fill="#9A9A9A">one word in historical read</text>
</svg>